<svg width="32" height="32" viewBox="0 0 32 32" fill="none" xmlns="http://www.w3.org/2000/svg">
<rect width="32" height="32" rx="4" fill="#3b82f6"/>
<rect x="6" y="6" width="20" height="14" rx="2" fill="#ffffff"/>
<rect x="8" y="8" width="4" height="3" rx="1" fill="#3b82f6"/>
<rect x="14" y="8" width="4" height="3" rx="1" fill="#3b82f6"/>
<rect x="20" y="8" width="4" height="3" rx="1" fill="#3b82f6"/>
<rect x="8" y="12" width="4" height="3" rx="1" fill="#3b82f6"/>
<rect x="14" y="12" width="4" height="3" rx="1" fill="#3b82f6"/>
<rect x="20" y="12" width="4" height="3" rx="1" fill="#3b82f6"/>
<rect x="8" y="16" width="16" height="1" fill="#3b82f6"/>
<rect x="8" y="22" width="16" height="6" rx="1" fill="#ffffff" stroke="#3b82f6" stroke-width="2"/>
<rect x="10" y="24" width="2" height="2" rx="1" fill="#3b82f6"/>
<rect x="14" y="24" width="2" height="2" rx="1" fill="#3b82f6"/>
<rect x="18" y="24" width="2" height="2" rx="1" fill="#3b82f6"/>
</svg>
